<?xml version="1.0" encoding="UTF-8"?><svg id="Layer_2" xmlns="http://www.w3.org/2000/svg" viewBox="0 0 380.64 380.64"><defs><style>.cls-1{fill:#2856b2;}</style></defs><g id="frame"><polygon class="cls-1" points="269.94 0 126.91 82.58 113.72 82.58 113.72 90.2 81.79 108.63 0 155.85 0 127.55 74.16 84.73 92.65 74.06 220.92 0 269.94 0"/><polygon class="cls-1" points="211.23 298.06 68.2 380.64 19.18 380.64 61.35 356.29 162.21 298.06 211.23 298.06"/><path class="cls-1" d="m171.07,109.92l-57.35,33.11-13.11,7.57L0,208.68v-28.3l89.8-51.84,23.92-13.81,32.74-18.9c8.43,4.34,16.64,9.04,24.61,14.09Z"/><polygon class="cls-1" points="63.04 13.8 0 50.19 0 21.89 37.91 0 86.93 0 63.04 13.8"/><polygon class="cls-1" points="119.72 298.06 64.43 329.98 0 367.18 0 338.88 40.84 315.3 71.28 297.73 113.72 273.23 113.72 298.06 119.72 298.06"/><path class="cls-1" d="m380.64,171.95v28.3l-87.8,50.69-25.93,14.97-30.36,17.53c-8.47-4.31-16.72-8.99-24.73-14.02l55.09-31.81,15.11-8.72,98.62-56.94Z"/><polygon class="cls-1" points="319.84 365.55 380.64 330.45 380.64 358.75 342.72 380.64 293.71 380.64 319.84 365.55"/><polygon class="cls-1" points="380.64 224.79 380.64 253.09 308.53 294.72 290.72 305 159.71 380.64 110.69 380.64 253.72 298.06 266.91 298.06 266.91 290.45 300.88 270.84 380.64 224.79"/><polygon class="cls-1" points="380.64 13.46 380.64 41.76 344.85 62.42 306.53 84.55 266.91 107.42 266.91 82.58 260.91 82.58 313.64 52.14 380.64 13.46"/><polygon class="cls-1" points="380.64 66.29 380.64 94.59 278.37 153.63 266.91 160.25 266.91 131.95 296.51 114.86 380.64 66.29"/></g></svg>